<svg xmlns="http://www.w3.org/2000/svg" viewBox="0 0 300 359.25" version="1.0"><defs><clipPath id="e16223d627"><path d="M.31 0H299.7v357.75H.3Zm0 0"/></clipPath></defs><path fill="currentcolor" d="M113.25 301.42a14.98 14.98 0 0 1-29.94 0 14.98 14.98 0 0 1 29.95 0Zm-37.89 0a22.94 22.94 0 0 0 22.93 22.9 22.94 22.94 0 0 0 22.9-22.9 22.94 22.94 0 0 0-22.9-22.9 22.94 22.94 0 0 0-22.93 22.9"/><g clip-path="url(#e16223d627)"><path fill="currentcolor" d="m173.82 12.07 8.68 15.67a5.95 5.95 0 0 0 5.22 3.07h70.8l3.79 6.84H71.6l14.17-25.58Zm113.95 51.06H19.05a6.8 6.8 0 0 1 0-13.57h268.72ZM57.57 96.7 34.24 75.04h21.73Zm96.95 204.73A56.28 56.28 0 0 0 80.87 248L69.76 99.68 67.9 75.04H266L246.12 345.7H132.84a56.11 56.11 0 0 0 21.68-44.28Zm-56.23-44.28a44.35 44.35 0 0 1 44.3 44.28 44.35 44.35 0 0 1-44.3 44.28 44.35 44.35 0 0 1-44.33-44.28 44.35 44.35 0 0 1 44.33-44.28ZM293.73 37.65h-17.8l-8.68-15.68a5.96 5.96 0 0 0-5.22-3.07h-70.8l-8.68-15.67a5.97 5.97 0 0 0-5.21-3.08H82.25a5.96 5.96 0 0 0-5.21 3.08L57.97 37.65H19.05A18.72 18.72 0 0 0 .34 56.35c0 9.44 7.05 17.25 16.16 18.5l42.39 39.3 10.43 139.13a56.2 56.2 0 0 0-27.27 48.14 56.28 56.28 0 0 0 56.24 56.2h153.36c3.13 0 5.72-2.41 5.95-5.53l20.35-277.05h15.78c3.29 0 5.96-2.67 5.96-5.95V43.61a5.96 5.96 0 0 0-5.96-5.96"/></g></svg>