<svg width="214" height="193" viewBox="0 0 214 193" fill="none" xmlns="http://www.w3.org/2000/svg">
<g clip-path="url(#clip0_2127_26986)">
<rect width="214" height="193" fill="white"/>
<path d="M169.18 109.57C164.698 115.477 159.856 121.101 154.68 126.41L98.1801 183.06L41.7101 126.46C37.251 121.846 33.0353 117.003 29.0801 111.95L44.1401 114.28C45.1307 114.367 46.1173 114.074 46.9001 113.46C47.6828 112.847 48.2031 111.959 48.3557 110.976C48.5082 109.994 48.2816 108.99 47.7217 108.168C47.1618 107.346 46.3104 106.768 45.3401 106.55L20.6401 102.73C19.6162 102.58 18.5745 102.839 17.74 103.451C16.9055 104.063 16.3451 104.979 16.1801 106L12.3701 130.7C12.2584 131.702 12.5378 132.708 13.1499 133.508C13.7621 134.309 14.6596 134.842 15.6555 134.997C16.6513 135.152 17.6684 134.916 18.4946 134.339C19.3209 133.762 19.8924 132.888 20.0901 131.9L22.5101 116.24C26.5101 121.4 31.0101 126.64 36.1301 131.92L95.4101 191.35C95.7732 191.713 96.2042 192.001 96.6786 192.198C97.1531 192.394 97.6616 192.496 98.1751 192.496C98.6886 192.496 99.1971 192.394 99.6715 192.198C100.146 192.001 100.577 191.713 100.94 191.35L160.26 131.88C165.676 126.333 170.742 120.455 175.43 114.28C176.053 113.451 176.322 112.409 176.177 111.382C176.031 110.355 175.484 109.428 174.655 108.805C173.826 108.182 172.784 107.913 171.757 108.059C170.73 108.204 169.803 108.751 169.18 109.58V109.57ZM212.69 73.1901C212.206 72.2743 211.377 71.5883 210.387 71.2826C209.397 70.977 208.327 71.0768 207.41 71.5601L193.77 78.7601C195.366 73.0346 196.2 67.1237 196.25 61.1801C196.25 27.6501 171.07 0.370117 140.1 0.370117C121.56 0.370117 106.03 12.0901 98.1701 31.1501C90.3101 12.0901 74.7901 0.370117 56.2401 0.370117C25.2901 0.370117 0.100098 27.6501 0.100098 61.1801C0.150015 68.3023 1.30717 75.3735 3.53009 82.1401C3.88093 83.0822 4.58112 83.8529 5.48528 84.2923C6.38943 84.7317 7.42809 84.8059 8.38556 84.4996C9.34302 84.1933 10.1457 83.5301 10.627 82.6475C11.1083 81.7649 11.2312 80.7309 10.9701 79.7601C8.9955 73.7623 7.96323 67.4944 7.9101 61.1801C7.9101 31.9601 29.6001 8.18011 56.2401 8.18011C75.0001 8.18011 89.6101 22.4201 94.3401 45.3301C94.5213 46.2121 95.0013 47.0045 95.6991 47.5735C96.3969 48.1425 97.2697 48.4532 98.1701 48.4532C99.0705 48.4532 99.9432 48.1425 100.641 47.5735C101.339 47.0045 101.819 46.2121 102 45.3301C106.74 22.4101 121.34 8.18011 140.1 8.18011C166.76 8.18011 188.43 31.9601 188.43 61.1801C188.43 66.1401 187.56 71.3001 186.17 76.5201L178.91 62.7901C178.67 62.3364 178.344 61.9343 177.949 61.6069C177.554 61.2794 177.098 61.033 176.608 60.8816C176.117 60.7302 175.602 60.6769 175.091 60.7247C174.58 60.7725 174.084 60.9205 173.63 61.1601C173.176 61.3998 172.774 61.7265 172.447 62.1215C172.119 62.5166 171.873 62.9722 171.722 63.4625C171.57 63.9528 171.517 64.4681 171.565 64.979C171.612 65.4899 171.76 65.9864 172 66.4401L183.68 88.5201C184.167 89.434 184.995 90.1183 185.984 90.4237C186.973 90.7291 188.043 90.6307 188.96 90.1501L211.06 78.4701C211.515 78.2312 211.917 77.9049 212.245 77.5099C212.573 77.115 212.82 76.6592 212.972 76.1686C213.123 75.6781 213.176 75.1624 213.128 74.6513C213.079 74.1402 212.931 73.6436 212.69 73.1901Z" fill="currentcolor"/>
</g>
<defs>
<clipPath id="clip0_2127_26986">
<rect width="214" height="193" fill="white"/>
</clipPath>
</defs>
</svg>
